<?xml version="1.0" encoding="UTF-8" standalone="no"?>
<!-- Created with Inkscape (http://www.inkscape.org/) -->

<svg
   width="168.78152mm"
   height="49.296886mm"
   viewBox="0 0 168.78152 49.296886"
   version="1.1"
   id="svg230"
   inkscape:version="1.1.1 (1:1.1+202109281949+c3084ef5ed)"
   sodipodi:docname="dolphin-slice-01.svg"
   xmlns:inkscape="http://www.inkscape.org/namespaces/inkscape"
   xmlns:sodipodi="http://sodipodi.sourceforge.net/DTD/sodipodi-0.dtd"
   xmlns="http://www.w3.org/2000/svg"
   xmlns:svg="http://www.w3.org/2000/svg">
  <sodipodi:namedview
     id="namedview232"
     pagecolor="#ffffff"
     bordercolor="#666666"
     borderopacity="1.0"
     inkscape:pageshadow="2"
     inkscape:pageopacity="0.0"
     inkscape:pagecheckerboard="true"
     inkscape:document-units="mm"
     showgrid="false"
     inkscape:zoom="0.16859393"
     inkscape:cx="-118.62824"
     inkscape:cy="-252.085"
     inkscape:window-width="1920"
     inkscape:window-height="966"
     inkscape:window-x="0"
     inkscape:window-y="27"
     inkscape:window-maximized="1"
     inkscape:current-layer="layer1"
     height="296mm"
     fit-margin-top="0"
     fit-margin-left="0"
     fit-margin-right="0"
     fit-margin-bottom="0"
     showborder="false" />
  <defs
     id="defs227" />
  <g
     inkscape:label="Calque 1"
     inkscape:groupmode="layer"
     id="layer1"
     transform="translate(-0.15805962,-0.51489889)">
    <path
       style="fill:#000000;stroke-width:0.352778"
       d="m 55.422984,49.466107 c -2.610661,-0.61507 -5.806652,-2.56841 -9.748915,-5.95841 -2.124756,-1.8271 -2.482409,-2.00587 -4.092134,-2.04533 -2.259181,-0.0554 -12.602712,-1.02849 -16.051388,-1.51009 -12.321926,-1.72072 -23.9822055,-3.78368 -24.8108365,-4.38959 -0.974809,-0.71279 -0.637471,-2.29602 0.677318,-3.17885 0.934345,-0.62738 4.9019779,-1.87422 10.6447785,-3.345145 1.197199,-0.306644 1.692036,-0.68835 2.423806,-1.869666 1.305765,-2.107937 2.503529,-3.322972 4.621577,-4.688225 5.230556,-3.371512 9.486451,-4.841963 16.721449,-5.777415 2.981286,-0.385467 7.563643,-1.023026 10.183018,-1.416798 2.619375,-0.393771 7.662284,-0.952928 11.206469,-1.24257 3.544182,-0.289642 7.902374,-0.844923 9.684872,-1.233959 1.782494,-0.389035 3.305527,-0.707337 3.384514,-0.707337 0.07898,0 1.832667,-1.637679 3.897069,-3.6392884 2.064406,-2.001608 4.467839,-4.123377 5.340964,-4.715043 3.554239,-2.408499 6.844733,-3.62573103 8.436003,-3.12068103 1.0412,0.330466 0.91986,0.90277203 -0.51365,2.42256103 -1.50899,1.599813 -1.92513,2.606583 -1.92513,4.657491 0,1.455698 0.11976,1.651345 1.85209,3.0257684 3.50391,2.779996 5.38927,3.818182 9.191081,5.061144 6.791211,2.220316 17.453651,4.686041 23.682191,5.476581 3.48955,0.442902 14.70877,2.563654 18.01492,3.405333 1.16417,0.296373 3.60569,1.095344 5.42561,1.775492 l 3.30893,1.236631 1.98273,-1.926074 c 3.41724,-3.319596 5.38365,-4.317773 6.74523,-3.423957 0.47037,0.308778 0.47037,0.385936 0,0.694418 -0.29104,0.190874 -0.67558,0.398429 -0.85454,0.461235 -0.17895,0.0628 0.0352,0.601969 0.47603,1.198142 0.65019,0.879418 0.72822,1.220692 0.41357,1.808629 -0.535,0.999657 -0.53527,0.999376 0.81102,0.842204 1.01829,-0.11888 1.42298,0.07754 2.68684,1.30407 1.71839,1.667639 4.05492,2.502579 7.02625,2.510749 6.91707,0.019 -0.70968,3.00601 -10.03798,3.93134 -3.93525,0.39036 -4.87956,0.37128 -8.0461,-0.16261 -2.68919,-0.45341 -3.89679,-0.51454 -4.82231,-0.24411 -0.6791,0.19843 -4.01285,0.60239 -7.40834,0.8977 -7.72079,0.67148 -10.73415,1.14888 -20.9423,3.31784 -4.48903,0.95379 -9.51124,1.9814 -11.16047,2.28357 -11.312582,2.07267 -23.743452,2.76494 -32.98473,1.8369 -3.104445,-0.31176 -7.747882,-0.67298 -10.31875,-0.80272 -3.890549,-0.19632 -4.673727,-0.15282 -4.670859,0.25943 0.0084,1.19921 1.790683,4.16613 3.301806,5.49628 1.28397,1.13019 1.520095,1.4935 1.080343,1.66225 -0.77107,0.29589 -3.225493,0.21061 -4.832046,-0.16789 z m 3.014913,-1.17448 c -1.634049,-1.37496 -2.95577,-4.18244 -3.306251,-7.02285 -0.341358,-2.76644 -1.055465,-3.76605 -2.690424,-3.76605 -0.706311,0 -0.827183,-0.1222 -0.610701,-0.61737 1.902749,-4.35218 2.037824,-12.735543 0.331096,-20.549302 l -0.192641,-0.881944 0.384309,0.881944 c 1.378182,3.1628 1.797861,13.670835 0.711521,17.815282 -0.356013,1.35819 -0.545299,2.50939 -0.420638,2.55822 2.216675,0.86821 2.700048,1.35787 2.872489,2.90983 l 0.176389,1.5875 7.408333,0.6088 c 20.40661,1.67698 29.573709,1.13386 48.909511,-2.89772 5.48103,-1.14282 5.5204,-1.15784 5.90233,-2.25301 0.34019,-0.97549 0.36416,-0.99074 0.20808,-0.13237 -0.097,0.53357 -0.0543,0.96966 0.0949,0.96907 0.14922,-7.1e-4 1.8588,-0.30848 3.79908,-0.6842 4.18361,-0.81013 10.75142,-1.65991 15.16945,-1.96271 4.32878,-0.29668 6.87916,-0.81829 6.87916,-1.40694 0,-0.39429 0.17607,-0.38928 1.01419,0.0288 3.60723,1.79952 13.58531,1.41823 20.84353,-0.7965 l 1.95478,-0.59646 -2.15615,-0.26238 c -3.58863,-0.43668 -5.04869,-0.98184 -6.69576,-2.500053 -1.503,-1.385415 -1.6161,-1.426316 -3.31941,-1.200364 -0.96987,0.128657 -1.7634,0.142651 -1.7634,0.0311 0,-0.111554 0.34639,-0.671347 0.76976,-1.243985 l 0.76977,-1.04116 -0.76977,-0.819375 c -0.85589,-0.911059 -1.00193,-1.856144 -0.32879,-2.127764 0.28502,-0.115007 0.24136,-0.187786 -0.12346,-0.205787 -0.74569,-0.03679 -2.90705,1.584926 -5.02899,3.773371 -1.55956,1.608443 -1.65455,1.799192 -1.06127,2.131207 0.35838,0.200559 0.54103,0.475222 0.40589,0.610362 -0.13514,0.135139 -0.98255,-0.186109 -1.88314,-0.713885 -3.76532,-2.206625 -15.29229,-5.07054 -26.9302,-6.690899 -7.33327,-1.02102 -19.984011,-4.043 -25.297631,-6.043042 -1.29147,-0.486106 -2.413451,-0.81849 -2.493311,-0.738633 -0.0799,0.07986 0.17213,1.290332 0.55999,2.689942 0.387851,1.39961 0.786241,3.523329 0.885321,4.719375 l 0.18014,2.174629 -0.45128,-2.469444 c -0.762151,-4.170542 -1.799791,-7.921167 -2.238021,-8.089519 -0.93579,-0.359491 -5.682055,-4.0835534 -5.887805,-4.6197514 -0.379883,-0.989949 -0.24352,-3.313668 0.26407,-4.499978 0.267145,-0.624358 0.981525,-1.60146 1.587505,-2.171337 0.60598,-0.569878 1.10178,-1.16519 1.10178,-1.322917 0,-0.66903803 -2.49151,-0.200853 -4.772458,0.896801 -2.876074,1.384048 -4.729875,2.806059 -9.418306,7.224579 -1.887068,1.7784314 -3.553943,3.2350054 -3.704166,3.2368314 -0.150224,0.0018 -1.801838,0.312395 -3.670254,0.690153 -1.868417,0.377758 -6.313417,0.932962 -9.877778,1.233787 -3.564361,0.300825 -7.988779,0.779343 -9.832043,1.063373 -1.843264,0.284031 -5.256389,0.760541 -7.584722,1.058912 -2.328333,0.298371 -5.265208,0.706394 -6.526389,0.906717 -2.694708,0.428023 -6.74205,1.602312 -7.150376,2.01989 -0.519952,0.234141 -3.240536,1.630459 -4.515537,2.343106 -1.441872,0.846118 -3.023333,1.913236 -3.514357,2.371374 -1.253045,1.169123 -3.239568,4.129749 -3.014899,4.493272 0.102987,0.166637 -0.483781,0.39551 -1.303929,0.508608 -0.820148,0.113097 -3.4635366,0.779404 -5.8741976,1.480684 -6.5912419,1.91745 -7.8025419,2.73642 -4.7289979,3.19733 2.2234799,0.33343 7.5327165,-0.0531 12.4634055,-0.90739 4.681217,-0.81106 4.849446,-0.82575 4.392083,-0.38355 -0.697361,0.67425 -9.5034556,1.88075 -13.9951096,1.91743 -2.468261,0.0201 -4.3690229,0.15538 -4.2239139,0.30049 0.392931,0.39293 7.4909169,1.66597 18.0602735,3.23914 0.679098,0.10108 2.160831,0.34365 3.292741,0.53905 2.79188,0.48195 11.523058,1.40024 16.372782,1.72198 3.464507,0.22984 3.94693,0.1952 3.809114,-0.2735 -0.487221,-1.65703 -0.564688,-2.42258 -0.263952,-2.60844 0.185515,-0.11466 0.435092,0.40309 0.554616,1.15054 0.174749,1.09283 0.686273,1.79981 2.611621,3.60956 4.496629,4.22665 8.911904,6.63577 12.191118,6.6519 l 1.702759,0.008 -1.013449,-0.85276 z m 10.872946,-6.68094 c -0.01972,-0.16597 0.350992,-1.59472 0.823803,-3.175 0.472807,-1.58028 1.023323,-3.58762 1.223366,-4.46074 l 0.363717,-1.5875 -0.183035,1.65158 c -0.16934,1.528 -2.147238,8.25016 -2.227851,7.57166 z m 22.251185,-0.22741 c -0.009,-0.29104 0.36875,-2.19604 0.83844,-4.23333 0.469691,-2.03729 0.772371,-2.98979 0.672631,-2.11667 -0.20331,1.77971 -1.486891,7.17371 -1.511071,6.35 z m 12.509192,-1.94028 c 0.37062,-1.6784 0.87628,-2.68674 0.61919,-1.23472 -0.12023,0.6791 -0.36132,1.47285 -0.53575,1.76389 -0.20729,0.34588 -0.23619,0.1626 -0.0834,-0.52917 z m 0.91123,-3.175 c 0.004,-0.38805 0.12776,-1.1818 0.27588,-1.76389 0.24189,-0.95063 0.26997,-0.96858 0.27587,-0.17638 0.004,0.48507 -0.12053,1.27882 -0.27587,1.76388 -0.22133,0.69109 -0.28103,0.72927 -0.27588,0.17639 z m 13.56971,-2.29305 c 0.11545,-0.87313 0.26719,-1.65365 0.33721,-1.73449 0.26537,-0.30644 0.0636,1.94268 -0.2347,2.61643 -0.20861,0.47112 -0.24267,0.17808 -0.10251,-0.88194 z m -25.192191,-2.11667 c 0,-0.87312 0.0688,-1.23031 0.15288,-0.79375 0.0841,0.43656 0.0841,1.15094 0,1.5875 -0.0841,0.43656 -0.15288,0.0794 -0.15288,-0.79375 z m 12.383101,-2.293055 c 7.1e-4,-2.134305 0.0589,-2.961947 0.12912,-1.839202 0.0702,1.122744 0.0696,2.868997 -0.001,3.880557 -0.071,1.01156 -0.12851,0.093 -0.12771,-2.041355 z M 71.667825,27.624944 c -0.159516,-3.64572 -0.466221,-5.787938 -1.307952,-9.135477 -0.604767,-2.405137 -1.033663,-4.438891 -0.9531,-4.519453 0.08056,-0.08056 0.664189,1.966652 1.296953,4.549366 1.09093,4.452784 1.764241,11.149029 1.324303,13.170457 -0.08351,0.38369 -0.245597,-1.445518 -0.360204,-4.064893 z m 47.467445,1.763889 c 0,-1.455208 0.0623,-2.050521 0.13838,-1.322916 0.0761,0.727604 0.0761,1.918229 0,2.64583 -0.0761,0.72761 -0.13838,0.1323 -0.13838,-1.322914 z M 93.737599,27.448555 c 10e-4,-1.552222 0.0633,-2.143338 0.13782,-1.313591 0.0745,0.829746 0.0735,2.099746 -0.002,2.822222 -0.0757,0.722475 -0.13664,0.04359 -0.13536,-1.508631 z m -69.735755,2.057869 c -0.446896,-0.446896 -0.233158,-1.453995 0.356613,-1.680312 0.74938,-0.287564 1.690871,0.621281 1.407791,1.358976 -0.214414,0.558755 -1.324766,0.760974 -1.764404,0.321336 z m 94.717736,-3.645372 c 0,-0.485069 0.0801,-0.683507 0.17794,-0.440972 0.0979,0.242535 0.0979,0.63941 0,0.881945 -0.0979,0.242534 -0.17794,0.0441 -0.17794,-0.440973 z M 105.3271,24.626333 c 0.007,-0.582083 0.0863,-0.777499 0.1757,-0.434258 0.0894,0.343241 0.0836,0.819491 -0.0131,1.058333 -0.0966,0.238842 -0.1698,-0.04199 -0.16261,-0.624075 z m 12.83282,-0.730754 c -0.12976,-0.517 -0.16789,-1.008036 -0.0847,-1.091191 0.0832,-0.08315 0.25736,0.27181 0.38712,0.78881 0.12975,0.517001 0.16789,1.008037 0.0847,1.091191 -0.0832,0.08315 -0.25736,-0.27181 -0.38711,-0.78881 z M 104.4587,21.369018 c -0.30981,-1.113064 -0.50415,-2.082889 -0.43187,-2.155165 0.0723,-0.07228 0.39362,0.770548 0.71409,1.872943 0.32048,1.102396 0.51482,2.07222 0.43187,2.155166 -0.0829,0.08295 -0.40429,-0.759879 -0.71409,-1.872944 z"
       id="path394"
       sodipodi:nodetypes="sscssssssssssssssssssssscsssscsssssssssssscssscsscscsscscsssscssscscssssscssssssssscsscsssssssscsssssccssssssscssssssssccccssscsscssccsscccscscscsssssscscccsssssssssscscccssssscsssscssssssssssscs" />
  </g>
</svg>
