<?xml version="1.0" encoding="iso-8859-1"?>
<svg width="24" height="24" xmlns="http://www.w3.org/2000/svg">

  <g>
    <title>Layer 1</title>
    <path id="svg_1" d="m4.17303,3.16667a1.75,1.75 0 1 0 0,3.5a1.75,1.75 0 0 0 0,-3.5zm-3.25,1.75a3.25,3.25 0 1 1 6.5,0a3.25,3.25 0 0 1 -6.5,0z" fill-rule="evenodd"/>
    <path id="svg_3" d="m10.095,22.28a0.75,0.75 0 0 1 0,-1.06l1.22,-1.22l-4.065,0a3.75,3.75 0 0 1 -3.75,-3.75l0,-8.75a0.75,0.75 0 0 1 1.5,0l0,8.75a2.25,2.25 0 0 0 2.25,2.25l4.064,0l-1.22,-1.22a0.75,0.75 0 1 1 1.061,-1.06l2.5,2.5a0.75,0.75 0 0 1 0,1.06l-2.5,2.5a0.75,0.75 0 0 1 -1.06,0z" fill-rule="evenodd"/>
  </g>
</svg>
