<?xml version="1.0" encoding="UTF-8" standalone="no"?>
<!-- Generator: Adobe Illustrator 19.0.0, SVG Export Plug-In . SVG Version: 6.00 Build 0)  -->

<svg
   version="1.1"
   id="Capa_1"
   x="0px"
   y="0px"
   viewBox="0 0 441.136 441.136"
   style="enable-background:new 0 0 441.136 441.136;"
   xml:space="preserve"
   sodipodi:docname="fish-packet.svg"
   inkscape:version="1.1.1 (1:1.1+202109281949+c3084ef5ed)"
   xmlns:inkscape="http://www.inkscape.org/namespaces/inkscape"
   xmlns:sodipodi="http://sodipodi.sourceforge.net/DTD/sodipodi-0.dtd"
   xmlns="http://www.w3.org/2000/svg"
   xmlns:svg="http://www.w3.org/2000/svg"><defs
   id="defs204" /><sodipodi:namedview
   id="namedview202"
   pagecolor="#ffffff"
   bordercolor="#666666"
   borderopacity="1.0"
   inkscape:pageshadow="2"
   inkscape:pageopacity="0.0"
   inkscape:pagecheckerboard="0"
   showgrid="false"
   inkscape:zoom="0.30335307"
   inkscape:cx="-230.75422"
   inkscape:cy="11.537711"
   inkscape:window-width="1920"
   inkscape:window-height="966"
   inkscape:window-x="0"
   inkscape:window-y="27"
   inkscape:window-maximized="1"
   inkscape:current-layer="Capa_1" />
<g
   id="g169"
   transform="matrix(0.42658553,-0.55508456,0.54574379,0.35531265,-54.56677,227.40664)">
	<g
   id="g167">
		<g
   id="g165">
			<path
   d="M 71.053,217.956 C 59.037,191.311 31.347,140.111 0,132.796 v 175.543 c 31.347,-7.314 60.082,-58.514 71.576,-85.159 -0.697,-1.649 -0.879,-3.47 -0.523,-5.224 z"
   id="path157" />
			<circle
   cx="379.82001"
   cy="210.64101"
   r="9.4040003"
   id="circle159" />
			<path
   d="m 315.559,220.568 c 0,-35.527 18.286,-65.306 43.886,-76.278 -27.167,-14.629 -57.469,-26.122 -90.384,-26.122 -87.771,0 -164.571,80.98 -180.245,102.4 15.673,21.42 92.473,102.4 180.245,102.4 32.914,0 63.216,-11.494 89.861,-26.122 -25.077,-10.972 -43.363,-40.752 -43.363,-76.278 z"
   id="path161" />
			<path
   d="m 434.344,204.038 c -0.063,-0.063 -0.126,-0.126 -0.189,-0.189 -17.067,-17.806 -35.982,-33.743 -56.424,-47.543 -26.122,1.045 -46.498,29.257 -46.498,64.261 0,35.004 20.376,63.216 46.498,64.261 20.442,-13.8 39.357,-29.737 56.424,-47.543 9.233,-9.128 9.318,-24.013 0.189,-33.247 z m -29.446,6.603 c 0,13.85 -11.228,25.078 -25.078,25.078 -13.85,0 -25.078,-11.228 -25.078,-25.078 -0.008,-13.85 11.213,-25.084 25.063,-25.093 13.85,-0.008 25.084,11.213 25.093,25.063 0,0.01 0,0.02 0,0.03 z"
   id="path163" />
		</g>
	</g>
</g>
<g
   id="g171">
</g>
<g
   id="g173">
</g>
<g
   id="g175">
</g>
<g
   id="g177">
</g>
<g
   id="g179">
</g>
<g
   id="g181">
</g>
<g
   id="g183">
</g>
<g
   id="g185">
</g>
<g
   id="g187">
</g>
<g
   id="g189">
</g>
<g
   id="g191">
</g>
<g
   id="g193">
</g>
<g
   id="g195">
</g>
<g
   id="g197">
</g>
<g
   id="g199">
</g>
<g
   id="g364"
   transform="matrix(-0.17386325,-0.52662624,-0.50015714,0.12769393,477.69483,365.48395)">
	<g
   id="g362">
		<g
   id="g360">
			<path
   d="M 71.053,217.956 C 59.037,191.311 31.347,140.111 0,132.796 v 175.543 c 31.347,-7.314 60.082,-58.514 71.576,-85.159 -0.697,-1.649 -0.879,-3.47 -0.523,-5.224 z"
   id="path352" />
			<circle
   cx="379.82001"
   cy="210.64101"
   r="9.4040003"
   id="circle354" />
			<path
   d="m 315.559,220.568 c 0,-35.527 18.286,-65.306 43.886,-76.278 -27.167,-14.629 -57.469,-26.122 -90.384,-26.122 -87.771,0 -164.571,80.98 -180.245,102.4 15.673,21.42 92.473,102.4 180.245,102.4 32.914,0 63.216,-11.494 89.861,-26.122 -25.077,-10.972 -43.363,-40.752 -43.363,-76.278 z"
   id="path356" />
			<path
   d="m 434.344,204.038 c -0.063,-0.063 -0.126,-0.126 -0.189,-0.189 -17.067,-17.806 -35.982,-33.743 -56.424,-47.543 -26.122,1.045 -46.498,29.257 -46.498,64.261 0,35.004 20.376,63.216 46.498,64.261 20.442,-13.8 39.357,-29.737 56.424,-47.543 9.233,-9.128 9.318,-24.013 0.189,-33.247 z m -29.446,6.603 c 0,13.85 -11.228,25.078 -25.078,25.078 -13.85,0 -25.078,-11.228 -25.078,-25.078 -0.008,-13.85 11.213,-25.084 25.063,-25.093 13.85,-0.008 25.084,11.213 25.093,25.063 0,0.01 0,0.02 0,0.03 z"
   id="path358" />
		</g>
	</g>
</g><g
   id="g378"
   transform="matrix(0.09470301,-0.36345307,0.37021351,0.06946197,98.044281,403.38551)">
	<g
   id="g376">
		<g
   id="g374">
			<path
   d="M 71.053,217.956 C 59.037,191.311 31.347,140.111 0,132.796 v 175.543 c 31.347,-7.314 60.082,-58.514 71.576,-85.159 -0.697,-1.649 -0.879,-3.47 -0.523,-5.224 z"
   id="path366" />
			<circle
   cx="379.82001"
   cy="210.64101"
   r="9.4040003"
   id="circle368" />
			<path
   d="m 315.559,220.568 c 0,-35.527 18.286,-65.306 43.886,-76.278 -27.167,-14.629 -57.469,-26.122 -90.384,-26.122 -87.771,0 -164.571,80.98 -180.245,102.4 15.673,21.42 92.473,102.4 180.245,102.4 32.914,0 63.216,-11.494 89.861,-26.122 -25.077,-10.972 -43.363,-40.752 -43.363,-76.278 z"
   id="path370" />
			<path
   d="m 434.344,204.038 c -0.063,-0.063 -0.126,-0.126 -0.189,-0.189 -17.067,-17.806 -35.982,-33.743 -56.424,-47.543 -26.122,1.045 -46.498,29.257 -46.498,64.261 0,35.004 20.376,63.216 46.498,64.261 20.442,-13.8 39.357,-29.737 56.424,-47.543 9.233,-9.128 9.318,-24.013 0.189,-33.247 z m -29.446,6.603 c 0,13.85 -11.228,25.078 -25.078,25.078 -13.85,0 -25.078,-11.228 -25.078,-25.078 -0.008,-13.85 11.213,-25.084 25.063,-25.093 13.85,-0.008 25.084,11.213 25.093,25.063 0,0.01 0,0.02 0,0.03 z"
   id="path372" />
		</g>
	</g>
</g></svg>
