<?xml version="1.0" encoding="iso-8859-1"?>
<!-- Generator: Adobe Illustrator 19.0.0, SVG Export Plug-In . SVG Version: 6.00 Build 0)  -->
<svg version="1.1" id="Capa_1" xmlns="http://www.w3.org/2000/svg" xmlns:xlink="http://www.w3.org/1999/xlink" x="0px" y="0px"
	 viewBox="0 0 441.136 441.136" style="enable-background:new 0 0 441.136 441.136;" xml:space="preserve">
<g>
	<g>
		<g>
			<path d="M71.053,217.956C59.037,191.311,31.347,140.111,0,132.796v175.543c31.347-7.314,60.082-58.514,71.576-85.159
				C70.879,221.531,70.697,219.71,71.053,217.956z"/>
			<circle cx="379.82" cy="210.641" r="9.404"/>
			<path d="M315.559,220.568c0-35.527,18.286-65.306,43.886-76.278c-27.167-14.629-57.469-26.122-90.384-26.122
				c-87.771,0-164.571,80.98-180.245,102.4c15.673,21.42,92.473,102.4,180.245,102.4c32.914,0,63.216-11.494,89.861-26.122
				C333.845,285.874,315.559,256.094,315.559,220.568z"/>
			<path d="M434.344,204.038c-0.063-0.063-0.126-0.126-0.189-0.189c-17.067-17.806-35.982-33.743-56.424-47.543
				c-26.122,1.045-46.498,29.257-46.498,64.261s20.376,63.216,46.498,64.261c20.442-13.8,39.357-29.737,56.424-47.543
				C443.388,228.157,443.473,213.272,434.344,204.038z M404.898,210.641c0,13.85-11.228,25.078-25.078,25.078
				c-13.85,0-25.078-11.228-25.078-25.078c-0.008-13.85,11.213-25.084,25.063-25.093c13.85-0.008,25.084,11.213,25.093,25.063
				C404.898,210.621,404.898,210.631,404.898,210.641z"/>
		</g>
	</g>
</g>
<g>
</g>
<g>
</g>
<g>
</g>
<g>
</g>
<g>
</g>
<g>
</g>
<g>
</g>
<g>
</g>
<g>
</g>
<g>
</g>
<g>
</g>
<g>
</g>
<g>
</g>
<g>
</g>
<g>
</g>
</svg>
